HIERARCHY
ROOT Hips
{
	OFFSET 	 0.0	 0.0	 0.0
	CHANNELS 6 Xposition Yposition Zposition Xrotation Yrotation Zrotation 
	JOINT Spine
	{
		OFFSET 	 15.3169	 0.0	 -0.012192
		CHANNELS 3 Xrotation Yrotation Zrotation 
		JOINT Spine_1
		{
			OFFSET 	 15.3176	 0.0	 -0.012192
			CHANNELS 3 Xrotation Yrotation Zrotation 
			JOINT Neck
			{
				OFFSET 	 19.9142	 -1e-06	 1.563377
				CHANNELS 3 Xrotation Yrotation Zrotation 
				JOINT Head
				{
					OFFSET 	 6.926521	 0.0	 0.0
					CHANNELS 3 Xrotation Yrotation Zrotation 
					End Site
					{
						OFFSET 	 20.766598	 0.0	 0.0
					}
				}
				JOINT LeftShoulder
				{
					OFFSET 	 -6.201691	 -7.28423	 0.708832
					CHANNELS 3 Xrotation Yrotation Zrotation 
					JOINT LeftArm
					{
						OFFSET 	 14.107998	 1.3e-05	 0.0
						CHANNELS 3 Xrotation Yrotation Zrotation 
						JOINT LeftForeArm
						{
							OFFSET 	 28.5802	 0.0	 0.0
							CHANNELS 3 Xrotation Yrotation Zrotation 
							JOINT LeftHand
							{
								OFFSET 	 27.091896	 0.0	 0.0
								CHANNELS 3 Xrotation Yrotation Zrotation 
								JOINT Bip01_L_Finger0
								{
									OFFSET 	 2.676086	 3.19825	 0.628212
									CHANNELS 3 Xrotation Yrotation Zrotation 
									JOINT Bip01_L_Finger01
									{
										OFFSET 	 2.82782	 0.0	 0.0
										CHANNELS 3 Xrotation Yrotation Zrotation 
										JOINT Bip01_L_Finger02
										{
											OFFSET 	 3.100327	 0.0	 0.0
											CHANNELS 3 Xrotation Yrotation Zrotation 
											End Site
											{
												OFFSET 	 2.683968	 0.0	 0.0
											}
										}
									}
								}
								JOINT Bip01_L_Finger1
								{
									OFFSET 	 9.438972	 2.24244	 -0.203926
									CHANNELS 3 Xrotation Yrotation Zrotation 
									JOINT Bip01_L_Finger11
									{
										OFFSET 	 3.12896	 0.0	 0.0
										CHANNELS 3 Xrotation Yrotation Zrotation 
										JOINT Bip01_L_Finger12
										{
											OFFSET 	 2.379051	 0.0	 0.0
											CHANNELS 3 Xrotation Yrotation Zrotation 
											End Site
											{
												OFFSET 	 2.09993	 0.0	 0.0
											}
										}
									}
								}
								JOINT Bip01_L_Finger2
								{
									OFFSET 	 9.55928	 -0.145352	 -0.186424
									CHANNELS 3 Xrotation Yrotation Zrotation 
									JOINT Bip01_L_Finger21
									{
										OFFSET 	 3.801407	 0.0	 0.0
										CHANNELS 3 Xrotation Yrotation Zrotation 
										JOINT Bip01_L_Finger22
										{
											OFFSET 	 2.848793	 0.0	 0.0
											CHANNELS 3 Xrotation Yrotation Zrotation 
											End Site
											{
												OFFSET 	 2.01886	 0.0	 0.0
											}
										}
									}
								}
								JOINT Bip01_L_Finger3
								{
									OFFSET 	 8.993629	 -2.30169	 0.226974
									CHANNELS 3 Xrotation Yrotation Zrotation 
									JOINT Bip01_L_Finger31
									{
										OFFSET 	 3.369652	 0.0	 0.0
										CHANNELS 3 Xrotation Yrotation Zrotation 
										JOINT Bip01_L_Finger32
										{
											OFFSET 	 2.444229	 0.0	 0.0
											CHANNELS 3 Xrotation Yrotation Zrotation 
											End Site
											{
												OFFSET 	 2.057808	 0.0	 0.0
											}
										}
									}
								}
								JOINT Bip01_L_Finger4
								{
									OFFSET 	 8.023811	 -3.97473	 1.201897
									CHANNELS 3 Xrotation Yrotation Zrotation 
									JOINT Bip01_L_Finger41
									{
										OFFSET 	 2.908783	 0.0	 0.0
										CHANNELS 3 Xrotation Yrotation Zrotation 
										JOINT Bip01_L_Finger42
										{
											OFFSET 	 1.535797	 0.0	 0.0
											CHANNELS 3 Xrotation Yrotation Zrotation 
											End Site
											{
												OFFSET 	 1.630142	 0.0	 0.0
											}
										}
									}
								}
							}
						}
					}
				}
				JOINT RightShoulder
				{
					OFFSET 	 -6.20549	 7.280139	 0.70887
					CHANNELS 3 Xrotation Yrotation Zrotation 
					JOINT RightArm
					{
						OFFSET 	 14.107998	 -1e-05	 0.0
						CHANNELS 3 Xrotation Yrotation Zrotation 
						JOINT RightForeArm
						{
							OFFSET 	 28.5802	 -1.9e-05	 0.0
							CHANNELS 3 Xrotation Yrotation Zrotation 
							JOINT RightHand
							{
								OFFSET 	 27.092003	 0.0	 0.0
								CHANNELS 3 Xrotation Yrotation Zrotation 
								JOINT Bip01_R_Finger0
								{
									OFFSET 	 2.676079	 -3.19825	 0.628212
									CHANNELS 3 Xrotation Yrotation Zrotation 
									JOINT Bip01_R_Finger01
									{
										OFFSET 	 2.82782	 0.0	 0.0
										CHANNELS 3 Xrotation Yrotation Zrotation 
										JOINT Bip01_R_Finger02
										{
											OFFSET 	 3.100342	 0.0	 0.0
											CHANNELS 3 Xrotation Yrotation Zrotation 
											End Site
											{
												OFFSET 	 2.68396	 0.0	 0.0
											}
										}
									}
								}
								JOINT Bip01_R_Finger1
								{
									OFFSET 	 9.438957	 -2.242439	 -0.203918
									CHANNELS 3 Xrotation Yrotation Zrotation 
									JOINT Bip01_R_Finger11
									{
										OFFSET 	 3.12896	 0.0	 0.0
										CHANNELS 3 Xrotation Yrotation Zrotation 
										JOINT Bip01_R_Finger12
										{
											OFFSET 	 2.379051	 0.0	 0.0
											CHANNELS 3 Xrotation Yrotation Zrotation 
											End Site
											{
												OFFSET 	 2.099922	 0.0	 0.0
											}
										}
									}
								}
								JOINT Bip01_R_Finger2
								{
									OFFSET 	 9.559288	 0.145353	 -0.186417
									CHANNELS 3 Xrotation Yrotation Zrotation 
									JOINT Bip01_R_Finger21
									{
										OFFSET 	 3.801407	 0.0	 0.0
										CHANNELS 3 Xrotation Yrotation Zrotation 
										JOINT Bip01_R_Finger22
										{
											OFFSET 	 2.848793	 0.0	 0.0
											CHANNELS 3 Xrotation Yrotation Zrotation 
											End Site
											{
												OFFSET 	 2.01886	 0.0	 0.0
											}
										}
									}
								}
								JOINT Bip01_R_Finger3
								{
									OFFSET 	 8.993629	 2.301691	 0.226974
									CHANNELS 3 Xrotation Yrotation Zrotation 
									JOINT Bip01_R_Finger31
									{
										OFFSET 	 3.369652	 0.0	 0.0
										CHANNELS 3 Xrotation Yrotation Zrotation 
										JOINT Bip01_R_Finger32
										{
											OFFSET 	 2.444221	 0.0	 0.0
											CHANNELS 3 Xrotation Yrotation Zrotation 
											End Site
											{
												OFFSET 	 2.057823	 0.0	 0.0
											}
										}
									}
								}
								JOINT Bip01_R_Finger4
								{
									OFFSET 	 8.023811	 3.97473	 1.20192
									CHANNELS 3 Xrotation Yrotation Zrotation 
									JOINT Bip01_R_Finger41
									{
										OFFSET 	 2.908783	 0.0	 0.0
										CHANNELS 3 Xrotation Yrotation Zrotation 
										JOINT Bip01_R_Finger42
										{
											OFFSET 	 1.535797	 0.0	 0.0
											CHANNELS 3 Xrotation Yrotation Zrotation 
											End Site
											{
												OFFSET 	 1.630142	 0.0	 0.0
											}
										}
									}
								}
							}
						}
					}
				}
			}
		}
	}
	JOINT LeftUpLeg
	{
		OFFSET 	 -12.021299	 -8.83685	 -0.372498
		CHANNELS 3 Xrotation Yrotation Zrotation 
		JOINT LeftLeg
		{
			OFFSET 	 39.9035	 0.0	 0.0
			CHANNELS 3 Xrotation Yrotation Zrotation 
			JOINT LeftFoot
			{
				OFFSET 	 39.6689	 0.0	 0.0
				CHANNELS 3 Xrotation Yrotation Zrotation 
				JOINT Bip01_L_Toe0
				{
					OFFSET 	 10.162399	 -2e-06	 13.629601
					CHANNELS 3 Xrotation Yrotation Zrotation 
					End Site
					{
						OFFSET 	 8.38147	 0.0	 0.0
					}
				}
			}
		}
	}
	JOINT RightUpLeg
	{
		OFFSET 	 -12.021299	 8.836849	 -0.372444
		CHANNELS 3 Xrotation Yrotation Zrotation 
		JOINT RightLeg
		{
			OFFSET 	 39.9035	 0.0	 0.0
			CHANNELS 3 Xrotation Yrotation Zrotation 
			JOINT RightFoot
			{
				OFFSET 	 39.6689	 0.0	 0.0
				CHANNELS 3 Xrotation Yrotation Zrotation 
				JOINT Bip01_R_Toe0
				{
					OFFSET 	 10.162399	 -2e-06	 13.629601
					CHANNELS 3 Xrotation Yrotation Zrotation 
					End Site
					{
						OFFSET 	 8.38147	 0.0	 0.0
					}
				}
			}
		}
	}
}
MOTION
Frames: 5
Frame Time: 0.013889
-3.22135823253	91.421005	-25.9422538862	-173.672339612	-1.54660000934	-92.3173780782	-1.926488	3.081663	-1.074457	-2e-06	1e-06	-1e-06	2.929834	-28.262273	4.978032	2.364139	4.312554	-4.380733	168.061733	-21.097138	107.624686	12.189881	3.565571	19.642538	-8.1e-05	67.60832	4.3e-05	-139.576446	10.869919	28.179849	-0.0	1e-06	0.0	-0.0	2e-06	0.0	-0.0	2e-06	0.0	-0.0	1e-06	0.0	-0.0	-1e-06	0.0	-0.0	-2e-06	1e-06	-0.0	2e-06	0.0	-0.0	2e-06	1e-06	-1e-06	2e-06	0.0	-0.0	1e-06	0.0	-0.0	0.0	0.0	-0.0	0.0	0.0	-0.0	2e-06	0.0	-1e-06	0.0	-1e-06	-0.0	6e-06	0.0	-173.884419	-20.306544	-107.64767	-17.765908	9.930301	-25.833551	6.9e-05	71.597574	3e-06	151.125845	5.743336	-47.328379	-1e-06	-2e-06	1e-06	1e-06	-2e-06	1e-06	-0.0	-6e-06	1e-06	-1e-06	-2e-06	0.0	-1e-06	-2e-06	2e-06	-0.0	-6e-06	2e-06	-1e-06	-1e-06	1e-06	1e-06	-1e-06	5.6498000615e-30	1e-06	-3e-06	0.0	-1e-06	-2e-06	1e-06	-1e-06	-1e-06	2e-06	1e-06	-2e-06	0.0	-1e-06	-1e-06	1e-06	1e-06	-1e-06	5.6498000615e-30	1e-06	-3e-06	0.0	12.58915	4.841484	177.492086	-2e-06	27.725809	4e-06	0.581397	-16.357321	7.315133	90.0	0.0	75.0	-10.619978	17.753958	177.623605	-2.1e-05	59.980952	1.7e-05	-11.249425	-3.202664	-4.201972	90.0	5.9999999951e-06	75.0	
-3.33117527491	91.533508	-26.9654516478	-173.757328874	-2.5948518015	-92.4793628473	-2.256679	3.136574	-1.032102	1e-06	1e-06	-5.6498000615e-30	2.783255	-28.059049	5.339356	2.388665	3.887844	-4.456278	167.928745	-20.873203	107.648899	12.23007	3.711645	19.587827	-8.3e-05	67.763816	4.9e-05	-139.466725	11.028885	28.001969	-0.0	1e-06	1e-06	-0.0	0.0	0.0	-0.0	0.0	1e-06	-0.0	0.0	1e-06	1e-06	-3e-06	0.0	-0.0	2e-06	1e-06	-0.0	1e-06	1e-06	-0.0	0.0	0.0	-0.0	2e-06	1e-06	-0.0	1e-06	1e-06	-1e-06	-4e-06	-3.3898800369e-29	-1e-06	3e-06	0.0	1e-06	2e-06	1e-06	-0.0	-1e-06	1e-06	-1e-06	2e-06	1e-06	-173.961291	-20.039347	-107.566213	-17.718353	9.77152	-25.765697	6.9e-05	71.626876	2e-06	151.161621	5.773411	-47.3826	-1e-06	0.0	1e-06	2e-06	-2e-06	2e-06	2e-06	-3e-06	0.0	-1e-06	0.0	0.0	-0.0	-4e-06	0.0	1e-06	-4e-06	2e-06	-1e-06	0.0	1e-06	-0.0	-4e-06	-1e-06	-0.0	-4e-06	1e-06	-1e-06	0.0	1e-06	1e-06	0.0	1e-06	2e-06	-1e-06	2e-06	-1e-06	0.0	1e-06	-0.0	-4e-06	-1e-06	1e-06	-3e-06	1e-06	12.401714	3.962311	177.919396	-3e-06	27.124428	5e-06	1.506084	-16.66087	7.230827	90.0	0.0	75.0	-10.464361	18.582537	178.283592	-1.2e-05	57.784534	1.3e-05	-10.422875	-3.634665	-3.184307	90.0	-3.99999999991e-06	75.0	
-3.44723172895	91.633308	-28.0002109598	-173.804894561	-3.64147322804	-92.5969619911	-2.577582	3.203236	-1.018426	1e-06	1e-06	-5.6498000615e-30	2.679052	-28.277886	5.834045	2.338853	4.208077	-4.801154	167.84404	-21.024492	107.722754	12.253793	3.841927	19.516799	-8.2e-05	67.937405	5.1e-05	-139.308361	11.142843	27.828175	-0.0	-3e-06	0.0	-1e-06	-1e-06	-5.6498000615e-30	-0.0	-1e-06	1e-06	-0.0	-4e-06	0.0	-0.0	-3e-06	1e-06	-0.0	-1e-06	0.0	-0.0	-3e-06	0.0	-0.0	-4e-06	1e-06	1e-06	0.0	2e-06	-0.0	-3e-06	1e-06	-0.0	-3e-06	0.0	-0.0	-1e-06	0.0	-0.0	-2e-06	0.0	-0.0	0.0	-1e-06	-0.0	0.0	1e-06	-174.030234	-20.207998	-107.331227	-17.68769	9.594666	-25.721953	7.2e-05	71.674366	7e-06	151.100109	5.785829	-47.400758	-0.0	-5e-06	3e-06	1e-06	1e-06	-1e-06	-0.0	-4e-06	-1e-06	-0.0	-6e-06	2e-06	-0.0	1e-06	-2e-06	-2e-06	-1e-06	-1e-06	-0.0	-5e-06	3e-06	1e-06	2e-06	0.0	-1e-06	-1e-06	-5.6498000615e-30	-0.0	-5e-06	2e-06	-0.0	1e-06	-2e-06	-1e-06	0.0	-1e-06	-0.0	-5e-06	3e-06	1e-06	2e-06	0.0	-0.0	0.0	-1e-06	12.384743	3.009172	178.350491	-1e-06	26.463845	6e-06	2.614124	-16.849751	7.234903	90.0	2.00000000791e-06	75.0	-10.233252	19.226861	178.710438	-1e-05	55.376343	1.3e-05	-9.605619	-4.39689	-1.128724	90.0	1.00000000077e-06	75.0	
-3.54884990147	91.724609	-29.0192800357	-173.965853323	-4.63807512729	-92.678837281	-2.844802	3.294886	-1.146625	-0.0	2e-06	0.0	2.465915	-28.289583	5.977454	2.372609	4.31791	-4.44989	167.844664	-20.963567	107.497364	12.316995	3.992982	19.451464	-8.2e-05	68.11471	4.1e-05	-139.159668	11.283462	27.658479	1e-06	-2e-06	1e-06	-0.0	-1e-06	-1e-06	-1e-06	2e-06	-1e-06	-0.0	-2e-06	1e-06	-0.0	-5e-06	0.0	-0.0	0.0	0.0	1e-06	-1e-06	1e-06	-1e-06	-1e-06	-5.6498000615e-30	-0.0	3e-06	-1e-06	1e-06	-1e-06	1e-06	-0.0	-5e-06	0.0	-0.0	-5e-06	1e-06	1e-06	-1e-06	1e-06	-0.0	-1e-06	0.0	-0.0	-2e-06	0.0	-174.061726	-20.185144	-107.449737	-17.6718	9.407239	-25.673489	7.9e-05	71.742565	1.7e-05	150.98379	5.803059	-47.42102	-0.0	-1e-06	-1e-06	-0.0	0.0	0.0	-1e-06	-3e-06	-1e-06	-0.0	-2e-06	0.0	2e-06	1e-06	-1.1299600123e-29	-0.0	0.0	2e-06	-0.0	-1e-06	1e-06	-0.0	-2e-06	-1e-06	-0.0	0.0	-1e-06	-0.0	-1e-06	0.0	-0.0	-1e-06	1e-06	-0.0	1e-06	2e-06	-0.0	-1e-06	1e-06	-0.0	-2e-06	-1e-06	-0.0	-1e-06	0.0	12.478233	2.211494	178.739688	-2e-06	25.862561	3e-06	3.786219	-17.152775	7.301015	90.0	1.00000000077e-06	75.0	-10.058603	19.869838	179.13238	-8e-06	52.430861	1.5e-05	-9.184113	-4.503697	-0.069508	90.0	2.00000000791e-06	75.0	
-3.64110079057	91.801414	-30.0300019783	-174.149434503	-5.57728988604	-92.7071579415	-3.077413	3.393873	-1.249728	-2e-06	0.0	0.0	2.316616	-28.229711	6.208331	2.373282	4.383204	-4.37308	167.819525	-20.863436	107.386681	12.375745	4.140828	19.389227	-7.8e-05	68.299815	5.4e-05	-139.004854	11.376599	27.504803	-0.0	0.0	0.0	-1e-06	-3e-06	1e-06	-0.0	0.0	0.0	-0.0	2e-06	-1e-06	-0.0	-4e-06	0.0	-1e-06	-4e-06	1e-06	-0.0	0.0	-1e-06	-0.0	-1e-06	0.0	-0.0	1e-06	0.0	-0.0	0.0	-1e-06	-0.0	-3e-06	1e-06	-0.0	-3e-06	2e-06	-1e-06	-1e-06	-1e-06	-1e-06	-1e-06	-5.6498000615e-30	-1e-06	1e-06	5.6498000615e-30	-174.134201	-20.161689	-107.441541	-17.683389	9.229214	-25.628763	6.9e-05	71.832874	5e-06	150.8675	5.892959	-47.401981	1e-06	2e-06	-1e-06	1e-06	2e-06	-1e-06	-0.0	0.0	-2e-06	1e-06	1e-06	-1e-06	3e-06	0.0	-1e-06	-0.0	2e-06	1e-06	1e-06	2e-06	-1e-06	1e-06	0.0	-1e-06	1e-06	2e-06	-1e-06	1e-06	2e-06	-1e-06	2e-06	1.1299600123e-29	-2e-06	-0.0	3e-06	0.0	1e-06	2e-06	-1e-06	1e-06	-1e-06	-1e-06	-1e-06	1e-06	1e-06	12.243104	1.417842	179.010328	-4e-06	25.198479	5e-06	4.579057	-17.340904	7.298417	90.0	-1.99999999837e-06	75.0	-9.885355	20.463503	179.463658	-8e-06	49.311616	9e-06	-8.652838	-4.33195	1.126824	90.0	0.0	75.0	
